<?xml version="1.0" encoding="UTF-8"?>
<svg xmlns="http://www.w3.org/2000/svg" xmlns:xlink="http://www.w3.org/1999/xlink" width="24pt" height="24pt" viewBox="0 0 384 384" version="1.1">
<g id="surface1">
<path style=" stroke:none;fill-rule:nonzero;fill:#FFFFFF;fill-opacity:1;" d="M 376.726562 143.101562 C 379.648438 140.773438 384 142.949219 384 146.625 L 384 300 C 384 319.875 367.875 336 348 336 L 36 336 C 16.125 336 0 319.875 0 300 L 0 146.699219 C 0 142.949219 4.273438 140.851562 7.273438 143.175781 C 24.074219 156.226562 46.351562 172.800781 122.851562 228.375 C 138.675781 239.925781 165.375 264.226562 192 264.074219 C 218.773438 264.300781 246 239.476562 261.226562 228.375 C 337.726562 172.800781 359.925781 156.148438 376.726562 143.101562 Z M 192 240 C 209.398438 240.300781 234.449219 218.101562 247.050781 208.949219 C 346.574219 136.726562 354.148438 130.425781 377.101562 112.425781 C 381.449219 109.050781 384 103.800781 384 98.25 L 384 84 C 384 64.125 367.875 48 348 48 L 36 48 C 16.125 48 0 64.125 0 84 L 0 98.25 C 0 103.800781 2.550781 108.976562 6.898438 112.425781 C 29.851562 130.351562 37.425781 136.726562 136.949219 208.949219 C 149.550781 218.101562 174.601562 240.300781 192 240 Z M 192 240 "/>
</g>
</svg>
