<?xml version="1.0" encoding="UTF-8"?>
<svg xmlns="http://www.w3.org/2000/svg" xmlns:xlink="http://www.w3.org/1999/xlink" width="24pt" height="24pt" viewBox="0 0 27 27" version="1.1">
<g id="surface1">
<path style=" stroke:none;fill-rule:nonzero;fill:#FFFFFF;fill-opacity:1;" d="M 23.625 1.6875 L 3.371094 1.6875 C 2.441406 1.6875 1.6875 2.453125 1.6875 3.390625 L 1.6875 23.609375 C 1.6875 24.546875 2.441406 25.3125 3.371094 25.3125 L 23.625 25.3125 C 24.554688 25.3125 25.3125 24.546875 25.3125 23.609375 L 25.3125 3.390625 C 25.3125 2.453125 24.554688 1.6875 23.625 1.6875 Z M 8.828125 21.9375 L 5.328125 21.9375 L 5.328125 10.664062 L 8.832031 10.664062 L 8.832031 21.9375 Z M 7.078125 9.125 C 5.953125 9.125 5.046875 8.210938 5.046875 7.09375 C 5.046875 5.976562 5.953125 5.0625 7.078125 5.0625 C 8.195312 5.0625 9.105469 5.976562 9.105469 7.09375 C 9.105469 8.214844 8.199219 9.125 7.078125 9.125 Z M 21.953125 21.9375 L 18.453125 21.9375 L 18.453125 16.453125 C 18.453125 15.144531 18.425781 13.464844 16.632812 13.464844 C 14.808594 13.464844 14.527344 14.886719 14.527344 16.359375 L 14.527344 21.9375 L 11.027344 21.9375 L 11.027344 10.664062 L 14.386719 10.664062 L 14.386719 12.203125 L 14.433594 12.203125 C 14.902344 11.316406 16.046875 10.382812 17.75 10.382812 C 21.292969 10.382812 21.953125 12.71875 21.953125 15.757812 Z M 21.953125 21.9375 "/>
</g>
</svg>
